PathFileType	4	(X/Y/Z)
DataRate	CameraRate	NumFrames	NumMarkers	Units	OrigDataRate	OrigDataStartFrame	OrigNumFrames	
  120.0	  120.0	    4	     56	     mm	  120.0	      117	    465
Frame#	Time	LASI			RASI			LPSI			RPSI			RTH1			RTH2			RTH3			RLFC			RMFC			LTH1			LTH2			LTH3			LLFC			LMFC			RTB1			RTB2			RTB3			RLMAL			RMMAL			LTB1			LTB2			LTB3			LMMAL			LLMAL			RCAL			RTOE			RMT5			LCAL			LTOE			LMT5			LACR			RACR			CLAV			C7			LASH			LPSH			RASH			RPSH			RUA1			RUA2			RUA3			RLEL			RMEL			LUA1			LUA2			LUA3			LLEL			LMEL			RFAsuperior			RFAradius			RFAulna			LFAsuperior			LFAradius			LFAulna			RHJC			LHJC			
		X1	Y1	Z1	X2	Y2	Z2	X3	Y3	Z3	X4	Y4	Z4	X5	Y5	Z5	X6	Y6	Z6	X7	Y7	Z7	X8	Y8	Z8	X9	Y9	Z9	X10	Y10	Z10	X11	Y11	Z11	X12	Y12	Z12	X13	Y13	Z13	X14	Y14	Z14	X15	Y15	Z15	X16	Y16	Z16	X17	Y17	Z17	X18	Y18	Z18	X19	Y19	Z19	X20	Y20	Z20	X21	Y21	Z21	X22	Y22	Z22	X23	Y23	Z23	X24	Y24	Z24	X25	Y25	Z25	X26	Y26	Z26	X27	Y27	Z27	X28	Y28	Z28	X29	Y29	Z29	X30	Y30	Z30	X31	Y31	Z31	X32	Y32	Z32	X33	Y33	Z33	X34	Y34	Z34	X35	Y35	Z35	X36	Y36	Z36	X37	Y37	Z37	X38	Y38	Z38	X39	Y39	Z39	X40	Y40	Z40	X41	Y41	Z41	X42	Y42	Z42	X43	Y43	Z43	X44	Y44	Z44	X45	Y45	Z45	X46	Y46	Z46	X47	Y47	Z47	X48	Y48	Z48	X49	Y49	Z49	X50	Y50	Z50	X51	Y51	Z51	X52	Y52	Z52	X53	Y53	Z53	X54	Y54	Z54	X55	Y55	Z55	X56	Y56	Z56	

121	1.00833	618.94974	1111.42205	-639.66313	655.44403	1107.58939	-387.92371	462.76151	1142.53511	-532.93304	481.26441	1143.00641	-436.20851	628.58017	877.40654	-327.99917	642.90722	753.22341	-358.70040	557.07707	637.42196	-329.47654	548.29030	556.29919	-330.16693	540.96374	560.70021	-442.40228	542.12228	870.21109	-681.87856	588.68548	763.85563	-658.58636	526.51980	659.06002	-651.39230	514.84582	574.62507	-643.80561	527.40382	569.42233	-529.82595	562.43208	430.57331	-378.21637	504.49422	352.86662	-306.65247	534.92985	234.10882	-363.11928	486.50842	139.38724	-310.72444	499.14524	139.87586	-392.58237	534.25525	432.90044	-589.11843	477.32783	327.78699	-646.74979	515.24278	217.93554	-604.00337	479.81962	141.56749	-565.25773	464.90240	140.23676	-641.56452	417.59890	105.56456	-347.57573	630.62923	57.91803	-392.75144	624.36555	71.17935	-300.43207	404.14969	104.56944	-598.24107	626.63009	53.71896	-576.16885	603.15174	70.56294	-667.49431	513.99794	1558.49748	-663.31379	553.35872	1558.68770	-340.78952	625.86719	1509.96329	-491.68955	505.03888	1589.12991	-496.89729	572.47184	1505.99161	-634.52513	461.78727	1526.33474	-640.61023	612.87932	1515.49371	-366.86031	498.95341	1522.21449	-342.20050	572.25134	1480.77550	-265.89895	523.84235	1429.65038	-255.18948	575.30237	1384.45780	-227.32460	527.01105	1289.68157	-144.31268	522.69858	1241.41368	-202.63669	487.05771	1466.33300	-744.65629	451.76062	1388.63014	-740.09163	507.56696	1396.91571	-789.17102	461.35083	1296.21827	-869.94611	463.11554	1254.18283	-810.52683	613.47008	1312.30170	-146.52396	773.37643	1309.00501	-213.56310	780.06340	1291.05354	-153.54258	547.92947	1323.67173	-873.71253	711.77370	1329.82408	-817.84014	708.69612	1318.87665	-877.77886	601.36679	999.40667	-401.02387	566.00672	1005.92969	-614.57978	
122	1.01667	619.02379	1111.40107	-639.83088	655.46754	1107.59249	-387.89915	462.79993	1142.51871	-532.95694	481.43352	1143.04650	-435.93054	628.59394	877.41251	-327.98559	642.91569	753.22783	-358.68262	557.08085	637.41730	-329.47814	548.29254	556.30143	-330.15729	540.96404	560.70115	-442.40147	542.18447	870.20069	-681.88266	588.72139	763.84182	-658.59743	526.54830	659.05402	-651.38817	514.88358	574.61781	-643.81710	527.40369	569.42281	-529.81681	562.43570	430.57504	-378.22258	504.47249	352.83336	-306.70944	534.93681	234.10486	-363.12256	486.50938	139.39218	-310.71576	499.16897	139.87177	-392.59208	534.27075	432.90022	-589.10450	477.34538	327.79111	-646.74415	515.25317	217.93469	-603.99896	479.81771	141.52903	-565.27217	464.91402	140.22957	-641.55337	417.59769	105.57440	-347.57115	630.64643	57.92503	-392.75246	624.37313	71.18717	-300.43106	404.18705	104.59080	-598.27423	626.64705	53.72387	-576.16031	603.16333	70.56164	-667.49120	514.03808	1558.48372	-663.34754	553.37730	1558.69098	-340.81834	625.89188	1509.94810	-491.71817	505.06817	1589.12889	-496.92981	572.50668	1505.96983	-634.57570	461.81225	1526.31785	-640.64358	612.89765	1515.49015	-366.88855	498.96877	1522.21977	-342.21969	572.25623	1480.77554	-265.93112	523.85468	1429.65713	-255.20474	575.32215	1384.45350	-227.34976	527.03054	1289.69055	-144.32579	522.65853	1241.39487	-202.66231	487.07253	1466.31108	-744.74127	451.82674	1388.59634	-740.12829	507.60236	1396.89521	-789.21198	461.39485	1296.19147	-869.97044	463.13052	1254.16122	-810.53415	613.48152	1312.29900	-146.56052	773.39837	1308.98968	-213.59750	780.07444	1291.04252	-153.57204	547.95894	1323.65149	-873.72069	711.75606	1329.80006	-817.84489	708.73739	1318.85215	-877.79567	601.53511	999.38910	-401.07699	565.92481	1005.95369	-614.58058	
123	1.02500	619.08048	1111.39013	-639.95588	655.50261	1107.59382	-387.87955	462.86156	1142.46580	-533.00905	481.72040	1143.10623	-435.45353	628.61208	877.41401	-327.96788	642.92942	753.22921	-358.64637	557.10101	637.44163	-329.42406	548.29736	556.30058	-330.13575	540.96288	560.70420	-442.39986	542.25186	870.19685	-681.90146	588.76484	763.83175	-658.61501	526.58773	659.04804	-651.39116	514.93310	574.61561	-643.81485	527.39949	569.42610	-529.80595	562.44388	430.57312	-378.20771	504.48845	352.85530	-306.66018	534.95392	234.10307	-363.10747	486.51638	139.39272	-310.70412	499.20159	139.86743	-392.59884	534.28988	432.90023	-589.08911	477.37434	327.79343	-646.74791	515.26296	217.92221	-603.97919	479.82444	141.48410	-565.29372	464.93569	140.22080	-641.54687	417.59864	105.58427	-347.55859	630.66563	57.92304	-392.73738	624.38001	71.18589	-300.43671	404.25317	104.64677	-598.36849	626.67663	53.71770	-576.14302	603.18156	70.55298	-667.47726	514.08010	1558.46643	-663.38336	553.39426	1558.70767	-340.84749	625.91976	1509.93473	-491.72489	505.10747	1589.11581	-496.95454	572.55001	1505.94853	-634.62788	461.85523	1526.28825	-640.68952	612.92456	1515.49043	-366.87019	499.00113	1522.25525	-342.20223	572.26524	1480.77473	-265.94262	523.86788	1429.65809	-255.21632	575.34733	1384.44636	-227.36164	527.05654	1289.69940	-144.33028	522.64068	1241.36571	-202.70299	487.13807	1466.28027	-744.79318	451.89068	1388.55894	-740.19447	507.64297	1396.87742	-789.25041	461.44398	1296.16763	-869.99758	463.16355	1254.14171	-810.55138	613.50402	1312.28851	-146.58565	773.41366	1308.96426	-213.60771	780.08956	1291.02192	-153.58810	547.99581	1323.62845	-873.73628	711.77918	1329.77970	-817.81780	708.79093	1318.82924	-877.82427	601.76890	999.36129	-401.11235	565.81378	1005.99131	-614.54405	
124	1.03333	619.09743	1111.39370	-639.94934	655.54597	1107.59301	-387.85823	462.94191	1142.40827	-533.06187	481.96165	1143.15708	-435.04464	628.62807	877.41653	-327.95499	642.94314	753.22932	-358.61785	557.11889	637.45917	-329.38259	548.29854	556.30133	-330.11692	540.96365	560.70860	-442.39862	542.30436	870.19999	-681.92705	588.80502	763.82727	-658.63086	526.63020	659.04640	-651.40190	514.98273	574.61977	-643.79720	527.38936	569.43232	-529.79644	562.45411	430.57085	-378.18709	504.51813	352.91093	-306.56989	534.97504	234.10828	-363.08926	486.52274	139.39189	-310.69776	499.23707	139.86173	-392.60050	534.31178	432.89948	-589.08108	477.40994	327.78999	-646.75844	515.27126	217.91087	-603.96493	479.83577	141.46128	-565.30412	464.96289	140.21492	-641.54746	417.59882	105.59191	-347.54855	630.68216	57.91696	-392.72331	624.38377	71.18116	-300.45440	404.32625	104.71831	-598.50372	626.70649	53.70617	-576.14099	603.19967	70.54568	-667.47032	514.11866	1558.44732	-663.42051	553.40399	1558.74031	-340.89151	625.94790	1509.93150	-491.72745	505.15128	1589.10458	-496.98504	572.59483	1505.93010	-634.67252	461.91137	1526.25531	-640.73984	612.94448	1515.50214	-366.85363	499.04105	1522.31301	-342.18032	572.27847	1480.77663	-265.95547	523.87896	1429.66446	-255.23609	575.37076	1384.44730	-227.37762	527.07791	1289.71150	-144.33928	522.66916	1241.34401	-202.74884	487.23813	1466.24661	-744.80499	451.93783	1388.53129	-740.25704	507.68395	1396.86442	-789.28045	461.49354	1296.14745	-870.02627	463.19265	1254.12639	-810.57037	613.52869	1312.28260	-146.61114	773.42911	1308.94690	-213.62349	780.10285	1291.00451	-153.60462	548.03888	1323.60249	-873.76107	711.82106	1329.77167	-817.79251	708.84711	1318.80985	-877.85315	601.93697	999.34248	-401.09109	565.75758	1006.01783	-614.47669	
